<svg width="212" height="101" viewBox="0 0 212 101" fill="none" xmlns="http://www.w3.org/2000/svg">
<path d="M0.9375 49.5625C0.9375 42.6042 2.25 36.125 4.875 30.125C7.5 24.0833 11.2917 18.8542 16.25 14.4375C21.25 9.97917 27.3333 6.47917 34.5 3.9375C41.7083 1.39583 49.8542 0.125 58.9375 0.125C66.8958 0.125 74.1875 0.9375 80.8125 2.5625C87.4792 4.14583 93.6667 6.58333 99.375 9.875L90.25 24.875C88.5417 23.75 86.5625 22.75 84.3125 21.875C82.1042 21 79.7292 20.2708 77.1875 19.6875C74.6875 19.0625 72.0833 18.5833 69.375 18.25C66.7083 17.9167 64.0625 17.75 61.4375 17.75C55.1042 17.75 49.4583 18.5417 44.5 20.125C39.5417 21.6667 35.3542 23.8542 31.9375 26.6875C28.5625 29.4792 25.9792 32.8333 24.1875 36.75C22.4375 40.625 21.5625 44.8958 21.5625 49.5625C21.5625 54.3958 22.4792 58.8333 24.3125 62.875C26.1458 66.9167 28.7917 70.4167 32.25 73.375C35.75 76.2917 40 78.5833 45 80.25C50.0417 81.875 55.7292 82.6875 62.0625 82.6875C64.9375 82.6875 67.7917 82.4792 70.625 82.0625C73.4583 81.6458 76.1875 81.0833 78.8125 80.375C81.4792 79.625 84.0417 78.75 86.5 77.75C88.9583 76.7083 91.25 75.5833 93.375 74.375L102.5 89.375C97.1667 92.7917 91 95.4792 84 97.4375C77 99.3542 69.5625 100.312 61.6875 100.312C51.6458 100.312 42.8333 99.0208 35.25 96.4375C27.6667 93.8125 21.3333 90.2292 16.25 85.6875C11.1667 81.1042 7.33333 75.7292 4.75 69.5625C2.20833 63.3542 0.9375 56.6875 0.9375 49.5625ZM124.375 1.3125H211.75V18.6875H144.188V44.25H201.562V60.5625H144.188V99H124.375V1.3125Z" fill="url(#paint0_linear_4_8)"/>
<defs>
<linearGradient id="paint0_linear_4_8" x1="16.0788" y1="-28" x2="259.956" y2="-16.6017" gradientUnits="userSpaceOnUse">
<stop stop-color="#8D05DD"/>
<stop offset="0.500487" stop-color="#5D59EC"/>
<stop offset="1" stop-color="#2EAAFA"/>
</linearGradient>
</defs>
</svg>
