<svg width="369" height="40" viewBox="0 0 369 40" fill="none" xmlns="http://www.w3.org/2000/svg">
<path d="M0.976562 20.4609C0.976562 17.8516 1.46875 15.4219 2.45312 13.1719C3.4375 10.9062 4.85938 8.94531 6.71875 7.28906C8.59375 5.61719 10.875 4.30469 13.5625 3.35156C16.2656 2.39844 19.3203 1.92188 22.7266 1.92188C25.7109 1.92188 28.4453 2.22656 30.9297 2.83594C33.4297 3.42969 35.75 4.34375 37.8906 5.57812L34.4688 11.2031C33.8281 10.7812 33.0859 10.4062 32.2422 10.0781C31.4141 9.75 30.5234 9.47656 29.5703 9.25781C28.6328 9.02344 27.6562 8.84375 26.6406 8.71875C25.6406 8.59375 24.6484 8.53125 23.6641 8.53125C21.2891 8.53125 19.1719 8.82812 17.3125 9.42188C15.4531 10 13.8828 10.8203 12.6016 11.8828C11.3359 12.9297 10.3672 14.1875 9.69531 15.6562C9.03906 17.1094 8.71094 18.7109 8.71094 20.4609C8.71094 22.2734 9.05469 23.9375 9.74219 25.4531C10.4297 26.9688 11.4219 28.2812 12.7188 29.3906C14.0312 30.4844 15.625 31.3438 17.5 31.9688C19.3906 32.5781 21.5234 32.8828 23.8984 32.8828C24.9766 32.8828 26.0469 32.8047 27.1094 32.6484C28.1719 32.4922 29.1953 32.2812 30.1797 32.0156C31.1797 31.7344 32.1406 31.4062 33.0625 31.0312C33.9844 30.6406 34.8438 30.2188 35.6406 29.7656L39.0625 35.3906C37.0625 36.6719 34.75 37.6797 32.125 38.4141C29.5 39.1328 26.7109 39.4922 23.7578 39.4922C19.9922 39.4922 16.6875 39.0078 13.8438 38.0391C11 37.0547 8.625 35.7109 6.71875 34.0078C4.8125 32.2891 3.375 30.2734 2.40625 27.9609C1.45312 25.6328 0.976562 23.1328 0.976562 20.4609ZM46.3984 0.140625H53.3359V13.4531C54.7891 12.6562 56.4062 12.0234 58.1875 11.5547C59.9844 11.0859 61.8672 10.8516 63.8359 10.8516C66.1172 10.8516 68.1641 11.1875 69.9766 11.8594C71.8047 12.5312 73.3516 13.5 74.6172 14.7656C75.8828 16.0156 76.8516 17.5391 77.5234 19.3359C78.2109 21.1328 78.5547 23.1562 78.5547 25.4062V39H71.6406V25.6875C71.6406 24.375 71.4297 23.1797 71.0078 22.1016C70.5859 21.0078 69.9688 20.0703 69.1562 19.2891C68.3438 18.5078 67.3516 17.9062 66.1797 17.4844C65.0234 17.0469 63.7109 16.8281 62.2422 16.8281C60.4766 16.8281 58.8359 17.1094 57.3203 17.6719C55.8047 18.2344 54.4766 18.9453 53.3359 19.8047V39H46.3984V0.140625ZM86.3359 11.3438H93.2734V15.3281C94.8047 14.1875 96.4219 13.2031 98.125 12.375C99.8281 11.5469 101.523 10.9141 103.211 10.4766L105.25 16.8281C102.578 17.0938 100.227 17.6953 98.1953 18.6328C96.1797 19.5547 94.5391 20.8594 93.2734 22.5469V39H86.3359V11.3438ZM108.766 25.1719C108.766 23.1875 109.164 21.3281 109.961 19.5938C110.773 17.8594 111.922 16.3438 113.406 15.0469C114.906 13.75 116.711 12.7266 118.82 11.9766C120.945 11.2266 123.328 10.8516 125.969 10.8516C128.609 10.8516 130.984 11.2266 133.094 11.9766C135.219 12.7266 137.023 13.75 138.508 15.0469C140.008 16.3438 141.156 17.8594 141.953 19.5938C142.766 21.3281 143.172 23.1875 143.172 25.1719C143.172 27.1562 142.766 29.0156 141.953 30.75C141.156 32.4844 140.008 34 138.508 35.2969C137.023 36.5938 135.219 37.6172 133.094 38.3672C130.984 39.1172 128.609 39.4922 125.969 39.4922C123.328 39.4922 120.945 39.1172 118.82 38.3672C116.711 37.6172 114.906 36.5938 113.406 35.2969C111.922 34 110.773 32.4844 109.961 30.75C109.164 29.0156 108.766 27.1562 108.766 25.1719ZM116.055 25.1719C116.055 26.2812 116.273 27.3359 116.711 28.3359C117.164 29.3203 117.812 30.1953 118.656 30.9609C119.516 31.7109 120.555 32.3125 121.773 32.7656C123.008 33.2031 124.406 33.4219 125.969 33.4219C127.531 33.4219 128.922 33.2031 130.141 32.7656C131.375 32.3125 132.414 31.7109 133.258 30.9609C134.117 30.1953 134.766 29.3203 135.203 28.3359C135.656 27.3359 135.883 26.2812 135.883 25.1719C135.883 24.0625 135.656 23.0078 135.203 22.0078C134.766 21.0078 134.117 20.1328 133.258 19.3828C132.414 18.6172 131.375 18.0156 130.141 17.5781C128.922 17.125 127.531 16.8984 125.969 16.8984C124.406 16.8984 123.008 17.125 121.773 17.5781C120.555 18.0156 119.516 18.6172 118.656 19.3828C117.812 20.1328 117.164 21.0078 116.711 22.0078C116.273 23.0078 116.055 24.0625 116.055 25.1719ZM150.18 11.3438H157.117V13.6875C158.961 12.6406 160.719 11.9062 162.391 11.4844C164.078 11.0625 165.727 10.8516 167.336 10.8516C169.445 10.8516 171.398 11.1641 173.195 11.7891C174.992 12.3984 176.547 13.3125 177.859 14.5312C179.172 15.75 180.195 17.2734 180.93 19.1016C181.68 20.9141 182.055 23.0156 182.055 25.4062V39H175.141V26.5312C175.141 25.0156 174.922 23.6641 174.484 22.4766C174.062 21.2734 173.445 20.2656 172.633 19.4531C171.836 18.625 170.859 18 169.703 17.5781C168.562 17.1406 167.281 16.9219 165.859 16.9219C165.109 16.9219 164.336 17 163.539 17.1562C162.758 17.3125 161.984 17.5391 161.219 17.8359C160.469 18.1172 159.742 18.4766 159.039 18.9141C158.336 19.3359 157.695 19.8203 157.117 20.3672V39H150.18V11.3438ZM188.922 25.1719C188.922 23.1875 189.32 21.3281 190.117 19.5938C190.93 17.8594 192.078 16.3438 193.562 15.0469C195.062 13.75 196.867 12.7266 198.977 11.9766C201.102 11.2266 203.484 10.8516 206.125 10.8516C208.766 10.8516 211.141 11.2266 213.25 11.9766C215.375 12.7266 217.18 13.75 218.664 15.0469C220.164 16.3438 221.312 17.8594 222.109 19.5938C222.922 21.3281 223.328 23.1875 223.328 25.1719C223.328 27.1562 222.922 29.0156 222.109 30.75C221.312 32.4844 220.164 34 218.664 35.2969C217.18 36.5938 215.375 37.6172 213.25 38.3672C211.141 39.1172 208.766 39.4922 206.125 39.4922C203.484 39.4922 201.102 39.1172 198.977 38.3672C196.867 37.6172 195.062 36.5938 193.562 35.2969C192.078 34 190.93 32.4844 190.117 30.75C189.32 29.0156 188.922 27.1562 188.922 25.1719ZM196.211 25.1719C196.211 26.2812 196.43 27.3359 196.867 28.3359C197.32 29.3203 197.969 30.1953 198.812 30.9609C199.672 31.7109 200.711 32.3125 201.93 32.7656C203.164 33.2031 204.562 33.4219 206.125 33.4219C207.688 33.4219 209.078 33.2031 210.297 32.7656C211.531 32.3125 212.57 31.7109 213.414 30.9609C214.273 30.1953 214.922 29.3203 215.359 28.3359C215.812 27.3359 216.039 26.2812 216.039 25.1719C216.039 24.0625 215.812 23.0078 215.359 22.0078C214.922 21.0078 214.273 20.1328 213.414 19.3828C212.57 18.6172 211.531 18.0156 210.297 17.5781C209.078 17.125 207.688 16.8984 206.125 16.8984C204.562 16.8984 203.164 17.125 201.93 17.5781C200.711 18.0156 199.672 18.6172 198.812 19.3828C197.969 20.1328 197.32 21.0078 196.867 22.0078C196.43 23.0078 196.211 24.0625 196.211 25.1719ZM231.203 2.36719H263.969V8.88281H238.633V18.4688H260.148V24.5859H238.633V39H231.203V2.36719ZM270.461 0.117188H277.398V39H270.461V0.117188ZM284.641 25.1719C284.641 23.1875 285.039 21.3281 285.836 19.5938C286.648 17.8594 287.797 16.3438 289.281 15.0469C290.781 13.75 292.586 12.7266 294.695 11.9766C296.82 11.2266 299.203 10.8516 301.844 10.8516C304.484 10.8516 306.859 11.2266 308.969 11.9766C311.094 12.7266 312.898 13.75 314.383 15.0469C315.883 16.3438 317.031 17.8594 317.828 19.5938C318.641 21.3281 319.047 23.1875 319.047 25.1719C319.047 27.1562 318.641 29.0156 317.828 30.75C317.031 32.4844 315.883 34 314.383 35.2969C312.898 36.5938 311.094 37.6172 308.969 38.3672C306.859 39.1172 304.484 39.4922 301.844 39.4922C299.203 39.4922 296.82 39.1172 294.695 38.3672C292.586 37.6172 290.781 36.5938 289.281 35.2969C287.797 34 286.648 32.4844 285.836 30.75C285.039 29.0156 284.641 27.1562 284.641 25.1719ZM291.93 25.1719C291.93 26.2812 292.148 27.3359 292.586 28.3359C293.039 29.3203 293.688 30.1953 294.531 30.9609C295.391 31.7109 296.43 32.3125 297.648 32.7656C298.883 33.2031 300.281 33.4219 301.844 33.4219C303.406 33.4219 304.797 33.2031 306.016 32.7656C307.25 32.3125 308.289 31.7109 309.133 30.9609C309.992 30.1953 310.641 29.3203 311.078 28.3359C311.531 27.3359 311.758 26.2812 311.758 25.1719C311.758 24.0625 311.531 23.0078 311.078 22.0078C310.641 21.0078 309.992 20.1328 309.133 19.3828C308.289 18.6172 307.25 18.0156 306.016 17.5781C304.797 17.125 303.406 16.8984 301.844 16.8984C300.281 16.8984 298.883 17.125 297.648 17.5781C296.43 18.0156 295.391 18.6172 294.531 19.3828C293.688 20.1328 293.039 21.0078 292.586 22.0078C292.148 23.0078 291.93 24.0625 291.93 25.1719ZM322.234 11.3203H330.273L337.469 27.9609L339.578 32.625L342.156 26.5781L335.312 11.3203H342.062L345.414 19.5234L348.766 11.3203H355.516L348.648 26.5781L351.25 32.625L353.359 27.9609L360.555 11.3203H368.594L355.492 39H347.945L345.414 33.6562L342.883 39H335.336L322.234 11.3203Z" fill="url(#paint0_linear_8_3423)"/>
<defs>
<linearGradient id="paint0_linear_8_3423" x1="36.3273" y1="-9" x2="425.548" y2="71.5612" gradientUnits="userSpaceOnUse">
<stop stop-color="#8D05DD"/>
<stop offset="0.500487" stop-color="#5D59EC"/>
<stop offset="1" stop-color="#2EAAFA"/>
</linearGradient>
</defs>
</svg>
