<svg xmlns="http://www.w3.org/2000/svg" version="1.1" xmlns:xlink="http://www.w3.org/1999/xlink" xmlns:svgjs="http://svgjs.dev/svgjs" width="1600" height="560" preserveAspectRatio="none" viewBox="0 0 1600 560"><g mask="url(&quot;#SvgjsMask1013&quot;)" fill="none"><path d="M -789.2589579181201,350 C -682.46,330.4 -468.86,263.2 -255.25895791812016,252 C -41.66,240.8 65.14,322.2 278.74104208187987,294 C 492.34,265.8 599.14,110.2 812.7410420818799,111 C 1026.34,111.8 1189.29,285.2 1346.7410420818799,298 C 1504.19,310.8 1549.35,199.6 1600,175" stroke="rgba(93, 89, 236, 0.18)" stroke-width="2"></path><path d="M -258.00501026764397,268 C -151.21,292.8 62.39,401 275.99498973235603,392 C 489.59,383 596.39,221.4 809.9949897323561,223 C 1023.59,224.6 1130.39,400.2 1343.994989732356,400 C 1557.59,399.8 1826.79,244.4 1877.994989732356,222 C 1929.2,199.6 1655.6,274.8 1600,288" stroke="rgba(93, 89, 236, 0.18)" stroke-width="2"></path><path d="M -423.99499309514687,467 C -317.19,396.6 -103.59,135 110.00500690485315,115 C 323.61,95 430.41,348.8 644.0050069048532,367 C 857.61,385.2 964.41,213.2 1178.0050069048532,206 C 1391.61,198.8 1627.61,327.6 1712.0050069048532,331 C 1796.4,334.4 1622.4,244.6 1600,223" stroke="rgba(141, 5, 221, 0.19)" stroke-width="2"></path><path d="M -820.0129898861038,450 C -713.21,378.4 -499.61,123.4 -286.0129898861038,92 C -72.41,60.6 34.39,273.4 247.9870101138962,293 C 461.59,312.6 568.39,156 781.9870101138962,190 C 995.59,224 1152.38,480 1315.9870101138963,463 C 1479.59,446 1543.2,176.6 1600,105" stroke="rgba(141, 5, 221, 0.19)" stroke-width="2"></path></g><defs><mask id="SvgjsMask1013"><rect width="1600" height="560" fill="#ffffff"></rect></mask></defs></svg>